<svg xmlns="http://www.w3.org/2000/svg" width="27.432" height="295.714"><path d="M26.287 279.714c.5 0 .846.226 1.036.68.19.45.13.868-.178 1.25l-12.5 13.713c-.24.238-.512.357-.822.357-.333 0-.62-.12-.857-.357L.286 281.643c-.308-.38-.368-.798-.177-1.25.213-.453.558-.68 1.035-.68h8V1.144c0-.333.107-.607.32-.822.215-.213.49-.32.822-.32h6.858c.333 0 .607.107.82.32.215.216.322.49.322.823v278.57h8" style="-inkscape-font-specification:FontAwesome" font-size="64" font-family="FontAwesome" letter-spacing="0" word-spacing="0"/></svg>