<svg version="1.1" class="projectcycleSVG" id="projectcycleSVG" xmlns="http://www.w3.org/2000/svg" xmlns:xlink="http://www.w3.org/1999/xlink" x="0px" y="0px" viewBox="0 0 200 200" enable-background="new 0 0 200 200" xml:space="preserve">
 <g>
  <g id="svg_1" class="svgcirclegroup svggroup_planningphase">
   <path fill="#707173" d="m184.899994,58.616405l2.099991,-7.799999l-7.899994,-2.099998c-7.600006,-11.400002 -17.699997,-21.000002 -29.5,-28.100002l-8.499985,14.700001c21.199997,13 35.5,36 36.5,62.300003l17.199997,0c-0.400009,-14 -3.900009,-27.200005 -9.900009,-39.000004" id="conceptSVG" class="projectcycleOuter "/>
   <path fill="#707173" d="m144.899994,17.816406c-11.400009,-6 -24.200005,-9.9 -37.800003,-10.8l-6.699989,-6.7l-6.700005,6.7c-13.599998,0.9 -26.399994,4.7 -37.799995,10.8l8.5,14.799999c10.699997,-5.599998 23,-8.799999 36,-8.799999c13,0 25.199997,3.200001 35.999992,8.799999l8.5,-14.799999z" id="demandanalysisSVG" class="projectcycleOuter "/>
   <path fill="#707173" d="m172.100006,97.616409c-1.399994,-38.400002 -33,-69.100002 -71.699997,-69.100002c-12.099998,0 -23.5,3 -33.5,8.299999l3.700005,6.400002c8.799995,-4.5 18.799995,-7.100002 29.5,-7.100002c34.599998,0 62.900002,27.299999 64.499992,61.500004l7.5,0z" id="planningphaseSVG" class="projectcycleInner "/>
  </g>
  <g id="svg_2" class="svgcirclegroup svggroup_projectphase">
   <path fill="#707173" d="m178.399994,152.699997l8.599991,-2.300003l-2.299988,-8.399994c6,-11.899994 9.599991,-25.199997 10,-39.300003l-17.200012,0c-0.899994,26.300003 -15.299988,49.300003 -36.5,62.300003l8.5,14.800003c11.600021,-6.900009 21.400009,-16.100006 28.900009,-27.100006" id="designSVG" class="projectcycleOuter "/>
   <path fill="#707173" d="m55.900002,182.5c11.400002,6 24.199997,9.800003 37.799995,10.800003l6.700005,6.699997l6.699997,-6.699997c13.599998,-0.900009 26.400002,-4.699997 37.799995,-10.800003l-8.5,-14.800003c-10.699997,5.600006 -22.999992,8.800003 -35.999992,8.800003c-13,0 -25.200005,-3.199997 -36,-8.800003l-8.5,14.800003z" id="programmingSVG" class="projectcycleOuter "/>
   <path fill="#707173" d="m66.900002,163.5c10,5.300003 21.400002,8.300003 33.5,8.300003c38.700005,0 70.299995,-30.699997 71.700005,-69.100006l-7.5,0c-1.200012,34.600006 -29.700012,62.300003 -64.500008,62.300003c-10.699997,0 -20.900002,-2.600006 -29.799995,-7.300003l-3.400002,5.800003z" id="projectphaseSVG" class="projectcycleInner "/>
  </g>
  <g id="svg_3" class="svgcirclegroup svggroup_qualitymanagement">
   <path fill="#707173" d="m16.1,142l-2.3,8.399994l8.599999,2.300003c7.5,10.900009 17.300001,20.199997 28.699999,27.100006l8.5,-14.800003c-21.199997,-13 -35.499998,-36 -36.499998,-62.300003l-17,0c0.4,14.100006 3.9,27.400009 10,39.300003" id="trainingSVG" class="projectcycleOuter "/>
   <path fill="#707173" d="m21.799999,48.299999l-7.9,2.100002l2.1,7.799999c-5.9,11.799999 -9.5,24.999996 -9.9,38.999996l17.199999,0c0.900002,-26.199997 15.200001,-49.199997 36.400002,-62.199997l-8.5,-14.799999c-11.700001,7.099998 -21.800001,16.700001 -29.400002,28.099998" id="supportSVG" class="projectcycleOuter  projectcycleOuterActive"/>
   <path fill="#707173" d="m28.700001,100c0,25.599998 13.399998,48 33.599998,60.800003l3.299999,-5.800003c-18.099998,-11.399994 -30.099998,-31.599998 -30.099998,-54.599998c0,-23.099998 12.099998,-43.400002 30.400002,-54.800003l-3.700001,-6.299999c-20.100002,12.700001 -33.5,35.100002 -33.5,60.700001" id="qualitymanagementSVG" class="projectcycleInner  projectcycleInnerActive"/>
  </g>
 </g>
</svg>
