<?xml version="1.0" encoding="UTF-8" standalone="no"?>
<!DOCTYPE svg PUBLIC "-//W3C//DTD SVG 1.1//EN" "http://www.w3.org/Graphics/SVG/1.1/DTD/svg11.dtd">
<svg width="100%" height="100%" viewBox="0 0 150 150" version="1.1" xmlns="http://www.w3.org/2000/svg" xmlns:xlink="http://www.w3.org/1999/xlink" xml:space="preserve" xmlns:serif="http://www.serif.com/" style="fill-rule:evenodd;clip-rule:evenodd;stroke-linejoin:round;stroke-miterlimit:2;">
    <g transform="matrix(3,0,0,3,0,0)">
        <rect x="0" y="0" width="50" height="50" style="fill:rgb(165,200,90);"/>
    </g>
    <g transform="matrix(5.92525e-17,-0.557401,0.680718,5.11131e-17,-1238.19,210.663)">
        <g>
            <path d="M190.919,1850.74C190.926,1846.81 194.816,1843.63 199.612,1843.63C219.628,1843.63 268.835,1843.63 288.875,1843.63C291.183,1843.63 293.396,1844.38 295.027,1845.72C296.657,1847.06 297.572,1848.87 297.568,1850.76C297.528,1874.61 297.399,1950.12 297.399,1950.12L336.065,1950.12C337.693,1950.12 339.151,1950.95 339.726,1952.2C340.301,1953.45 339.872,1954.86 338.649,1955.74C320.216,1969.01 273.911,2002.36 253.144,2017.32C247.23,2021.58 238.363,2021.56 232.481,2017.27C211.932,2002.28 166.27,1968.97 148.102,1955.72C146.889,1954.84 146.47,1953.43 147.047,1952.19C147.625,1950.95 149.08,1950.12 150.704,1950.12C165.422,1950.12 190.75,1950.12 190.75,1950.12C190.75,1950.12 190.878,1874.57 190.919,1850.74Z" style="fill:rgb(38,38,38);"/>
        </g>
    </g>
</svg>
