<svg xmlns="http://www.w3.org/2000/svg" width="32" height="32" fill="none">
    <path fill="currentColor"
          d="M17.062 6.142a.78.78 0 0 1 .56.232l5.472 5.557c.144.146.225.34.225.545l.012 11.352c-.04 1.237-.656 1.958-2.112 1.922l-10.274.108c-1.29-.035-2.114-.573-2.166-1.948l-.11-15.446c.12-1.68 1.36-2.43 2.628-2.276zm.485 8.526a.19.19 0 0 0-.123.18v1.874l-5.393-.008a.41.41 0 0 0-.412.412v4.318c0 .227.184.412.411.412l5.394.009v1.94a.193.193 0 0 0 .335.133l3.904-4.133a.66.66 0 0 0 .003-.902l-3.907-4.187a.19.19 0 0 0-.212-.048m-.748-8.28a.16.16 0 0 0-.098.145l-.023 6.097c0 .16.127.29.287.291l5.919.064c.062 0 .12-.036.145-.094a.16.16 0 0 0-.031-.17l-6.029-6.296a.16.16 0 0 0-.17-.037"/>
</svg>
