<?xml version="1.0" encoding="UTF-8" standalone="no"?>
<svg width="32px" height="32px" viewBox="0 0 32 32" version="1.1" xmlns="http://www.w3.org/2000/svg" xmlns:xlink="http://www.w3.org/1999/xlink" xmlns:sketch="http://www.bohemiancoding.com/sketch/ns">
    <!-- Generator: Sketch 3.2.2 (9983) - http://www.bohemiancoding.com/sketch -->
    <title>in2publish</title>
    <desc>Created with Sketch.</desc>
    <defs>
        <filter x="-50%" y="-50%" width="200%" height="200%" filterUnits="objectBoundingBox" id="filter-1">
            <feOffset dx="-1" dy="1" in="SourceAlpha" result="shadowOffsetOuter1"></feOffset>
            <feGaussianBlur stdDeviation="0" in="shadowOffsetOuter1" result="shadowBlurOuter1"></feGaussianBlur>
            <feColorMatrix values="0 0 0 0 0   0 0 0 0 0   0 0 0 0 0  0 0 0 0.35 0" in="shadowBlurOuter1" type="matrix" result="shadowMatrixOuter1"></feColorMatrix>
            <feMerge>
                <feMergeNode in="shadowMatrixOuter1"></feMergeNode>
                <feMergeNode in="SourceGraphic"></feMergeNode>
            </feMerge>
        </filter>
    </defs>
    <g id="Page-1" stroke="none" stroke-width="1" fill="none" fill-rule="evenodd" sketch:type="MSPage">
        <rect id="Background" stroke="#979797" fill="#5D9A46" sketch:type="MSShapeGroup" x="1" y="1" width="30" height="30"></rect>
        <path d="M4,7 L4,26 L19,26 L19,7 L4,7 L4,7 Z M18,25 L5,25 L5,8 L18,8 L18,25 L18,25 Z M16,12 L7,12 L7,13 L16,13 L16,12 L16,12 Z M16,14 L7,14 L7,15 L16,15 L16,14 L16,14 Z M16,16 L7,16 L7,17 L16,17 L16,16 L16,16 Z M16,18 L7,18 L7,19 L16,19 L16,18 L16,18 Z M16,20 L7,20 L7,21 L16,21 L16,20 L16,20 Z" id="File" fill="#FFFFFF" sketch:type="MSShapeGroup"></path>
        <path d="M29,19.5 L21.7419355,12 L21.7419355,16.5 L14,16.5 L14,22.5 L21.7419355,22.5 L21.7419355,27 L29,19.5 Z" id="Arrow" fill="#FFFFFF" filter="url(#filter-1)" sketch:type="MSShapeGroup"></path>
    </g>
</svg>