<svg xmlns="http://www.w3.org/2000/svg" width="32" height="32" fill="none">
<path fill="transparent" stroke="currentColor" stroke-width="1.5"
      d="M13.262 7.262 15.93 9.99l.074.075.107-.001 8.498-.05c.734.037 1.245.28 1.593.675q.528.599.633 1.763l-.039 10.52c-.033.623-.213 1.03-.491 1.28-.28.248-.702.377-1.307.348h-.012l-17.124.025h-.005c-.656.017-1.2-.111-1.63-.404-.421-.287-.758-.751-.974-1.462L5.25 9.442c.144-.738.44-1.226.825-1.558.39-.334.892-.528 1.482-.634z"/>
<path fill="currentColor" fill-opacity="1" d="M15.742 20.265a3.503 3.503 0 1 0 0-7.006 3.503 3.503 0 0 0 0 7.006"/>
<path fill="currentColor" fill-rule="evenodd"
      d="M8.235 16.976a.7.7 0 0 0-.036.702c1.781 3.494 5.393 5.256 8.876 4.634 2.302-.412 4.563-1.864 6.189-4.593a.7.7 0 0 0-.005-.73c-1.842-3.004-4.635-4.49-7.442-4.493-2.8-.003-5.639 1.473-7.582 4.48m1.415.422c1.633-2.32 3.903-3.495 6.165-3.493 2.248.002 4.464 1.169 6.01 3.46-1.356 2.081-3.151 3.23-4.998 3.56-2.777.496-5.638-.856-7.177-3.527"
      clip-rule="evenodd"/>
<path fill="var(--token-color-primary-80, #ff8700)"
      d="M15.743 17.466c1.044 0 1.89-.773 1.89-1.726s-.846-1.726-1.89-1.726-1.89.773-1.89 1.726.846 1.726 1.89 1.726"/>
</svg>
