<?xml version="1.0" encoding="UTF-8" standalone="no"?>
<!DOCTYPE svg PUBLIC "-//W3C//DTD SVG 1.1//EN" "http://www.w3.org/Graphics/SVG/1.1/DTD/svg11.dtd">
<svg width="100%" height="100%" viewBox="0 0 150 150" version="1.1" xmlns="http://www.w3.org/2000/svg" xmlns:xlink="http://www.w3.org/1999/xlink" xml:space="preserve" xmlns:serif="http://www.serif.com/" style="fill-rule:evenodd;clip-rule:evenodd;stroke-linejoin:round;stroke-miterlimit:2;">
    <g transform="matrix(3,0,0,3,0,0)">
        <rect x="0" y="0" width="50" height="50" style="fill:rgb(165,200,90);"/>
    </g>
    <g transform="matrix(1.3196,0,0,1.3196,-4.50159,-23.4416)">
        <path d="M31.177,106.33C26.269,106.457 22.635,104.426 21.019,98.951L21.003,51.422C22.077,45.77 25.567,43.619 30.005,42.839L50.726,42.883L60.467,52.831L90.704,52.649C96.295,52.938 98.951,56.391 99.46,62.158L99.317,99.614C99.065,104.328 96.567,106.463 92.001,106.24L31.177,106.33Z" style="fill:white;"/>
    </g>
    <g transform="matrix(3.32126e-17,-0.320492,0.485459,3.87662e-17,-852.903,155.184)">
        <g transform="matrix(2.60762e-16,2.1558,-3.26545,2.23405e-16,483.948,1755.39)">
            <circle cx="70.995" cy="75.261" r="15.689" style="fill:rgb(166,201,87);"/>
        </g>
        <g transform="matrix(1.40727e-16,1.16343,-1.60905,1.10083e-16,374.239,1825.85)">
            <circle cx="70.995" cy="75.261" r="15.689" style="fill:white;"/>
        </g>
        <g transform="matrix(2.19443e-16,1.8142,-2.74802,1.88006e-16,444.29,1775.29)">
            <path d="M33.438,76.138C32.712,77.261 32.639,78.686 33.246,79.877C42.727,98.474 61.95,107.852 80.487,104.537C92.739,102.347 104.776,94.616 113.428,80.093C114.141,78.896 114.132,77.402 113.403,76.213C103.596,60.222 88.73,52.309 73.791,52.295C58.892,52.281 43.782,60.136 33.438,76.138ZM40.967,78.386C49.661,66.04 61.744,59.784 73.784,59.795C85.746,59.806 97.54,66.016 105.769,78.206C98.553,89.287 88.997,95.397 79.167,97.155C64.387,99.797 49.16,92.602 40.967,78.386L40.967,78.386Z" style="fill:rgb(166,201,87);"/>
        </g>
    </g>
</svg>
