<svg xmlns="http://www.w3.org/2000/svg" width="32" height="32" fill="none">
    <path fill="currentColor"
          d="m13.367 7.013 2.742 2.8 8.513-.051c1.574.081 2.322 1.053 2.465 2.676l-.04 10.545c-.071 1.327-.774 1.928-2.06 1.866l-17.123.025c-1.381.036-2.404-.536-2.86-2.077L5 9.417C5.302 7.826 6.285 7.22 7.534 7zm2.45 5.483c-2.8-.002-5.638 1.473-7.582 4.48a.7.7 0 0 0-.036.703c1.782 3.494 5.393 5.255 8.876 4.633 2.302-.412 4.563-1.865 6.189-4.593a.7.7 0 0 0-.004-.729c-1.843-3.004-4.637-4.491-7.444-4.494m2.527 1.921c1.315.548 2.526 1.533 3.481 2.947-1.355 2.082-3.151 3.23-4.998 3.56-2.777.497-5.638-.855-7.178-3.526.963-1.366 2.147-2.333 3.42-2.899a3.503 3.503 0 1 0 5.275-.082"/>
    <path fill="currentColor"
          d="M15.743 17.466c1.044 0 1.89-.773 1.89-1.726s-.846-1.726-1.89-1.726-1.89.773-1.89 1.726.846 1.726 1.89 1.726"/>
</svg>
