<?xml version="1.0" encoding="UTF-8" standalone="no"?>
<svg
   xmlns:sketch="http://www.bohemiancoding.com/sketch/ns"
   xmlns:dc="http://purl.org/dc/elements/1.1/"
   xmlns:cc="http://creativecommons.org/ns#"
   xmlns:rdf="http://www.w3.org/1999/02/22-rdf-syntax-ns#"
   xmlns:svg="http://www.w3.org/2000/svg"
   xmlns="http://www.w3.org/2000/svg"
   xmlns:sodipodi="http://sodipodi.sourceforge.net/DTD/sodipodi-0.dtd"
   xmlns:inkscape="http://www.inkscape.org/namespaces/inkscape"
   viewBox="0 0 64 64"
   id="module-redirects"
   version="1.1"
   sodipodi:docname="Redirect.svg"
   inkscape:version="1.0.2 (1.0.2+r75+1)">
  <metadata
     id="metadata66">
    <rdf:RDF>
      <cc:Work
         rdf:about="">
        <dc:format>image/svg+xml</dc:format>
        <dc:type
           rdf:resource="http://purl.org/dc/dcmitype/StillImage" />
      </cc:Work>
    </rdf:RDF>
  </metadata>
  <defs
     id="defs64">
    <filter
       x="-50%"
       y="-50%"
       width="200%"
       height="200%"
       filterUnits="objectBoundingBox"
       id="filter-1-3">
      <feOffset
         dx="-1"
         dy="1"
         in="SourceAlpha"
         result="shadowOffsetOuter1"
         id="feOffset1014" />
      <feGaussianBlur
         stdDeviation="0"
         in="shadowOffsetOuter1"
         result="shadowBlurOuter1"
         id="feGaussianBlur1016" />
      <feColorMatrix
         values="0 0 0 0 0   0 0 0 0 0   0 0 0 0 0  0 0 0 0.35 0"
         in="shadowBlurOuter1"
         type="matrix"
         result="shadowMatrixOuter1"
         id="feColorMatrix1018" />
      <feMerge
         id="feMerge1024">
        <feMergeNode
           in="shadowMatrixOuter1"
           id="feMergeNode1020" />
        <feMergeNode
           in="SourceGraphic"
           id="feMergeNode1022" />
      </feMerge>
    </filter>
  </defs>
  <sodipodi:namedview
     pagecolor="#ffffff"
     bordercolor="#666666"
     borderopacity="1"
     objecttolerance="10"
     gridtolerance="10"
     guidetolerance="10"
     inkscape:pageopacity="0"
     inkscape:pageshadow="2"
     inkscape:window-width="1782"
     inkscape:window-height="1403"
     id="namedview62"
     showgrid="false"
     inkscape:zoom="7.875"
     inkscape:cx="-1.4317824"
     inkscape:cy="26.360897"
     inkscape:window-x="778"
     inkscape:window-y="0"
     inkscape:window-maximized="0"
     inkscape:current-layer="module-redirects"
     inkscape:document-rotation="0" />
  <path
     fill="#59F"
     d="M0 0h64v64H0V0z"
     id="path57"
     style="fill:#5d9a46;fill-opacity:1" />
  <path
     fill="#FFF"
     d="M45.146 17.854l-3.61 3.61C39.01 19.168 35.675 17.75 32 17.75c-7.857 0-14.25 6.393-14.25 14.25S24.143 46.25 32 46.25c4.183 0 7.939-1.823 10.548-4.702l-2.827-2.827C37.84 40.878 35.08 42.25 32 42.25c-5.652 0-10.25-4.598-10.25-10.25S26.348 21.75 32 21.75c2.572 0 4.913.965 6.713 2.537l-2.86 2.86a.5.5 0 00.354.853H45.5a.5.5 0 00.5-.5v-9.293a.5.5 0 00-.854-.353z"
     id="path59" />
  <path
     d="m 24.149802,54.383409 -7.258065,-7.5 v 4.5 H 9.1498016 v 6 h 7.7419354 v 4.5 z"
     id="Arrow"
     fill="#ffffff"
     filter="url(#filter-1)"
     sketch:type="MSShapeGroup"
     style="filter:url(#filter-1-3)"
     transform="matrix(2.0944364,0,0,2.0944364,8.5354103,-74.758327)" />
</svg>
