<svg xmlns="http://www.w3.org/2000/svg" width="32" height="32" fill="none">
    <path fill="var(--icon-color-accent, #ff8700)"
          d="m22.573 8.927-1.805 1.805A7.07 7.07 0 0 0 16 8.875c-3.928 0-7.125 3.197-7.125 7.125s3.197 7.125 7.125 7.125c2.092 0 3.97-.912 5.274-2.351L19.86 19.36A5.11 5.11 0 0 1 16 21.126 5.13 5.13 0 0 1 10.875 16 5.13 5.13 0 0 1 16 10.875c1.286 0 2.456.482 3.357 1.268l-1.43 1.43a.25.25 0 0 0 .177.427h4.646a.25.25 0 0 0 .25-.25V9.103a.25.25 0 0 0-.427-.176"/>
    <g filter="url(#a)">
        <path fill="currentColor" d="m29.558 19.572-7.601-7.854v4.712H13.85v6.284h8.107v4.712z"/>
    </g>
    <defs>
        <filter id="a" width="17.803" height="17.803" x="11.755" y="11.718" color-interpolation-filters="sRGB"
                filterUnits="userSpaceOnUse">
            <feFlood flood-opacity="0" result="BackgroundImageFix"/>
            <feColorMatrix in="SourceAlpha" result="hardAlpha" values="0 0 0 0 0 0 0 0 0 0 0 0 0 0 0 0 0 0 127 0"/>
            <feOffset dx="-2.094" dy="2.094"/>
            <feColorMatrix values="0 0 0 0 0 0 0 0 0 0 0 0 0 0 0 0 0 0 0.35 0"/>
            <feBlend in2="BackgroundImageFix" result="effect1_dropShadow_1_2"/>
            <feBlend in="SourceGraphic" in2="effect1_dropShadow_1_2" result="shape"/>
        </filter>
    </defs>
</svg>
