<?xml version="1.0" encoding="UTF-8" standalone="no"?>
<!DOCTYPE svg PUBLIC "-//W3C//DTD SVG 1.1//EN" "http://www.w3.org/Graphics/SVG/1.1/DTD/svg11.dtd">
<svg width="100%" height="100%" viewBox="0 0 150 150" version="1.1" xmlns="http://www.w3.org/2000/svg" xmlns:xlink="http://www.w3.org/1999/xlink" xml:space="preserve" xmlns:serif="http://www.serif.com/" style="fill-rule:evenodd;clip-rule:evenodd;stroke-linejoin:round;stroke-miterlimit:2;">
    <g transform="matrix(3,0,0,3,0,0)">
        <rect x="0" y="0" width="50" height="50" style="fill:rgb(165,200,90);"/>
    </g>
    <g transform="matrix(0.917967,0,0,0.917967,7.14711,4.54483)">
        <path d="M81.593,31.91C76.511,31.058 71.323,31.058 66.241,31.91L63.728,39.452C58.906,40.736 54.37,42.921 50.36,45.89L42.896,43.152C39.062,46.594 35.827,50.65 33.324,55.155L37.654,61.822C35.652,66.393 34.532,71.301 34.353,76.287L27.558,80.416C27.859,85.56 29.013,90.618 30.975,95.383L38.887,96.155C41.212,100.57 44.351,104.506 48.138,107.755L47.13,115.641C51.339,118.613 56.013,120.864 60.961,122.302L66.499,116.597C71.4,117.532 76.434,117.532 81.335,116.597L86.873,122.302C91.821,120.864 96.495,118.613 100.704,115.641L99.696,107.755C103.483,104.506 106.622,100.57 108.947,96.155L116.859,95.383C118.82,90.618 119.975,85.56 120.275,80.416L113.481,76.287C113.302,71.301 112.182,66.393 110.18,61.822L114.51,55.155C112.007,50.65 108.772,46.594 104.938,43.152L97.474,45.89C93.464,42.921 88.928,40.736 84.106,39.452L81.593,31.91Z" style="fill:white;"/>
    </g>
    <g transform="matrix(1.79118e-17,-0.202127,0.261812,2.44489e-17,-427.426,125.011)">
        <path d="M190.918,1850.5C190.925,1846.7 194.911,1843.63 199.825,1843.63L288.66,1843.63C291.025,1843.63 293.292,1844.36 294.963,1845.65C296.634,1846.94 297.571,1848.69 297.567,1850.52C297.525,1872.04 297.399,1936.6 297.399,1936.6L335.843,1936.6C337.558,1936.6 339.098,1937.41 339.727,1938.64C340.356,1939.87 339.945,1941.28 338.691,1942.18C320.11,1955.56 273.043,1989.46 252.558,2004.22C247.063,2008.17 238.53,2008.15 233.067,2004.17C212.798,1989.38 166.375,1955.52 148.06,1942.16C146.817,1941.26 146.415,1939.86 147.047,1938.63C147.679,1937.4 149.217,1936.6 150.927,1936.6L190.75,1936.6C190.75,1936.6 190.876,1872 190.918,1850.5Z" style="fill:rgb(165,200,90);"/>
    </g>
</svg>
