<svg xmlns="http://www.w3.org/2000/svg" width="32" height="32" fill="none">
    <path fill="currentColor"
          d="M14.497 7.219a9.1 9.1 0 0 1 3.006 0l.493 1.477c.944.252 1.832.68 2.617 1.26l1.462-.535a9.1 9.1 0 0 1 1.875 2.35l-.849 1.305c.392.895.612 1.857.647 2.833l1.33.809a9.1 9.1 0 0 1-.668 2.931l-1.55.15a7.8 7.8 0 0 1-1.812 2.273l.198 1.544a9.1 9.1 0 0 1-2.708 1.305l-1.085-1.117a7.8 7.8 0 0 1-2.905 0l-1.085 1.117a9.1 9.1 0 0 1-2.708-1.305l.197-1.544A7.8 7.8 0 0 1 9.14 19.8l-1.55-.15a9.1 9.1 0 0 1-.669-2.932l1.332-.809a7.8 7.8 0 0 1 .646-2.833l-.849-1.305a9.1 9.1 0 0 1 1.875-2.35l1.462.536a7.8 7.8 0 0 1 2.617-1.26zm2.598 4.801a.18.18 0 0 0-.114.167v1.659l-4.808-.008a.385.385 0 0 0-.384.384v3.83c0 .213.171.384.383.384l4.809.008v1.717a.18.18 0 0 0 .31.124l3.465-3.666a.615.615 0 0 0 .002-.84l-3.465-3.715a.18.18 0 0 0-.198-.044"/>
</svg>
